<?xml version="1.0" encoding="UTF-8" standalone="no"?>
<!-- Created with Inkscape (http://www.inkscape.org/) -->

<svg
   width="180"
   height="180"
   viewBox="0 0 180 180"
   version="1.1"
   id="svg1"
   inkscape:version="1.4 (86a8ad7, 2024-10-11)"
   sodipodi:docname="PuuurAmorLogoNoText.svg"
   xmlns:inkscape="http://www.inkscape.org/namespaces/inkscape"
   xmlns:sodipodi="http://sodipodi.sourceforge.net/DTD/sodipodi-0.dtd"
   xmlns="http://www.w3.org/2000/svg"
   xmlns:svg="http://www.w3.org/2000/svg">
  <sodipodi:namedview
     id="namedview1"
     pagecolor="#505050"
     bordercolor="#eeeeee"
     borderopacity="1"
     inkscape:showpageshadow="0"
     inkscape:pageopacity="0"
     inkscape:pagecheckerboard="0"
     inkscape:deskcolor="#505050"
     inkscape:document-units="px"
     inkscape:zoom="2.4"
     inkscape:cx="40"
     inkscape:cy="73.75"
     inkscape:window-width="1600"
     inkscape:window-height="877"
     inkscape:window-x="-8"
     inkscape:window-y="-8"
     inkscape:window-maximized="1"
     inkscape:current-layer="layer1-1" />
  <defs
     id="defs1">
    <rect
       x="-233.28303"
       y="-207.52858"
       width="212.38087"
       height="138.85006"
       id="rect1" />
    <inkscape:path-effect
       effect="spiro"
       id="path-effect2"
       is_visible="true"
       lpeversion="1" />
  </defs>
  <g
     inkscape:groupmode="layer"
     id="layer1-1"
     inkscape:label="Cat"
     style="display:inline"
     transform="matrix(2.5478771,0,0,2.3725705,-188.09633,45.455163)">
    <path
       style="fill:none;stroke:#000000;stroke-width:2.93906;stroke-linecap:round;stroke-linejoin:bevel;stroke-dasharray:none"
       d="m 90.033606,37.051886 c 6.867889,-2.100756 14.117214,-2.947587 21.284384,-2.486339 4.92554,0.316986 9.81123,1.248251 14.50801,2.765379"
       id="path2"
       transform="matrix(0.61749757,0,0,0.85646228,42.791767,-27.169131)"
       sodipodi:nodetypes="csc"
       inkscape:original-d="m 90.033606,37.051886 c 7.185118,-1.026446 13.945304,-1.536879 21.284384,-2.486339 7.33909,-0.949462 9.55541,1.738933 14.50801,2.765379"
       inkscape:path-effect="#path-effect2" />
    <path
       style="fill:none;stroke:#000000;stroke-width:2.13738;stroke-linecap:round;stroke-linejoin:bevel;stroke-dasharray:none;paint-order:normal"
       d="M 84.209585,13.885819 84.076509,8.1644263 c 0.05315,-4.986994 -0.310874,-9.8856897 0.323667,-14.7659651 0.06149,-0.4729334 0.344325,-0.9186647 0.667067,-1.1364331 0.438976,-0.296196 1.000919,-0.230443 1.477077,-0.063131 1.026859,0.3608133 2.715914,2.2097295 2.715914,2.2097295 l 9.148342,10.1647607"
       id="path3"
       sodipodi:nodetypes="ccsaacc" />
    <path
       style="fill:none;stroke:#000000;stroke-width:1.85239;stroke-linecap:round;stroke-linejoin:bevel;stroke-dasharray:none;paint-order:normal"
       d="m 78.491868,25.9762 c 10.48248,2.083458 10.48248,2.083458 10.48248,2.083458 v 0"
       id="path5" />
    <path
       style="fill:none;stroke:#000000;stroke-width:1.85239;stroke-linecap:round;stroke-linejoin:bevel;stroke-dasharray:none;paint-order:normal"
       d="m 89.099799,33.449763 c -10.53797,1.514243 -10.53797,1.514243 -10.53797,1.514243 v 0"
       id="path5-7" />
    <path
       style="fill:none;stroke:#000000;stroke-width:1.85239;stroke-linecap:round;stroke-linejoin:bevel;stroke-dasharray:none;paint-order:normal"
       d="m 140.62688,25.849333 c -10.48248,2.083458 -10.48248,2.083458 -10.48248,2.083458 v 0"
       id="path5-2" />
    <path
       style="fill:none;stroke:#000000;stroke-width:1.85239;stroke-linecap:round;stroke-linejoin:bevel;stroke-dasharray:none;paint-order:normal"
       d="m 130.01895,33.322896 c 10.53796,1.514243 10.53796,1.514243 10.53796,1.514243 v 0"
       id="path5-7-2" />
    <path
       style="fill:none;stroke:#000000;stroke-width:2.13738;stroke-linecap:round;stroke-linejoin:bevel;stroke-dasharray:none;paint-order:normal"
       d="m 134.80848,14.13836 0.13308,-5.7213927 c -0.0532,-4.986994 0.31087,-9.8856917 -0.32368,-14.765965 -0.0614,-0.4729336 -0.34432,-0.9186648 -0.66706,-1.1364333 -0.43898,-0.2961958 -1.00092,-0.2304429 -1.47708,-0.063131 -1.02686,0.3608142 -2.71591,2.2097306 -2.71591,2.2097306 l -9.14835,10.1647587"
       id="path4"
       sodipodi:nodetypes="ccsaacc" />
    <ellipse
       style="fill:#000000;fill-opacity:1;stroke:#000000;stroke-width:0.569966;stroke-linecap:round;stroke-linejoin:bevel;stroke-dasharray:none;paint-order:normal"
       id="path6"
       cx="97.979752"
       cy="23.76647"
       rx="2.0964959"
       ry="3.5987036" />
    <ellipse
       style="fill:#000000;fill-opacity:1;stroke:#000000;stroke-width:0.569966;stroke-linecap:round;stroke-linejoin:bevel;stroke-dasharray:none;paint-order:normal"
       id="path6-5"
       cx="120.98522"
       cy="23.759165"
       rx="2.0964959"
       ry="3.5987036" />
    <path
       d="m 107.65462,26.919774 c -0.11041,-3.83e-4 -0.21315,0.0202 -0.30384,0.06739 -0.56673,0.294887 -0.99525,1.325956 -0.88853,2.114367 0.23646,1.74668 3.08585,3.566322 3.08585,3.566322 l 0.0268,-4.722888 c 0,0 -1.14742,-1.022497 -1.92035,-1.025185 z m 3.77959,0.01313 c -0.74425,0.0105 -1.84357,1.020948 -1.84357,1.020948 l -0.031,4.722889 c 0,0 2.81099,-1.81947 3.04425,-3.566324 0.1053,-0.788486 -0.31102,-1.823155 -0.87668,-2.11479 -0.0876,-0.04515 -0.18665,-0.06422 -0.29297,-0.06273 z"
       style="display:inline;fill:#000000;stroke:#000000;stroke-width:0.357654;stroke-linecap:round;stroke-linejoin:round;stroke-dasharray:none"
       id="path8" />
    <path
       style="display:inline;fill:none;fill-opacity:1;stroke:#000000;stroke-width:0.927614;stroke-linecap:round;stroke-linejoin:round;stroke-dasharray:none;paint-order:normal"
       d="m 103.59207,34.783671 c 2.05521,5.915238 5.87925,1.374042 5.87925,1.374042 l 0.0865,-3.937999"
       id="path9"
       sodipodi:nodetypes="cc" />
    <path
       style="display:inline;fill:none;fill-opacity:1;stroke:#000000;stroke-width:0.927614;stroke-linecap:round;stroke-linejoin:round;stroke-dasharray:none;paint-order:normal"
       d="m 115.53529,34.800438 c -2.05521,5.915237 -5.87924,1.374041 -5.87924,1.374041 l -0.0865,-3.938001"
       id="path9-9"
       sodipodi:nodetypes="cc" />
  </g>
</svg>
