<?xml version="1.0" encoding="UTF-8" standalone="no"?>
<!-- Created with Inkscape (http://www.inkscape.org/) -->

<svg
   version="1.1"
   id="svg1"
   width="1752"
   height="1739"
   viewBox="0 0 1752 1739"
   sodipodi:docname="PuuurAmorLogoTextColored.svg"
   inkscape:version="1.4 (86a8ad7, 2024-10-11)"
   xml:space="preserve"
   xmlns:inkscape="http://www.inkscape.org/namespaces/inkscape"
   xmlns:sodipodi="http://sodipodi.sourceforge.net/DTD/sodipodi-0.dtd"
   xmlns="http://www.w3.org/2000/svg"
   xmlns:svg="http://www.w3.org/2000/svg"><defs
     id="defs1"><inkscape:path-effect
       effect="bspline"
       id="path-effect1"
       is_visible="true"
       lpeversion="1.3"
       weight="33.333333"
       steps="2"
       helper_size="0"
       apply_no_weight="true"
       apply_with_weight="true"
       only_selected="false"
       uniform="false" /><inkscape:path-effect
       effect="bspline"
       id="path-effect69"
       is_visible="true"
       lpeversion="1.3"
       weight="33.333333"
       steps="2"
       helper_size="0"
       apply_no_weight="true"
       apply_with_weight="true"
       only_selected="false"
       uniform="false" /><inkscape:path-effect
       effect="bspline"
       id="path-effect68"
       is_visible="true"
       lpeversion="1.3"
       weight="33.333333"
       steps="2"
       helper_size="0"
       apply_no_weight="true"
       apply_with_weight="true"
       only_selected="false"
       uniform="false" /><inkscape:path-effect
       effect="bspline"
       id="path-effect66"
       is_visible="true"
       lpeversion="1.3"
       weight="33.333333"
       steps="2"
       helper_size="0"
       apply_no_weight="true"
       apply_with_weight="true"
       only_selected="false"
       uniform="false" /><inkscape:path-effect
       effect="bspline"
       id="path-effect65"
       is_visible="true"
       lpeversion="1.3"
       weight="33.333333"
       steps="2"
       helper_size="0"
       apply_no_weight="true"
       apply_with_weight="true"
       only_selected="false"
       uniform="false" /><inkscape:path-effect
       effect="bspline"
       id="path-effect63"
       is_visible="true"
       lpeversion="1.3"
       weight="33.333333"
       steps="2"
       helper_size="0"
       apply_no_weight="true"
       apply_with_weight="true"
       only_selected="false"
       uniform="false" /><inkscape:path-effect
       effect="bspline"
       id="path-effect62"
       is_visible="true"
       lpeversion="1.3"
       weight="33.333333"
       steps="2"
       helper_size="0"
       apply_no_weight="true"
       apply_with_weight="true"
       only_selected="false"
       uniform="false" /><inkscape:path-effect
       effect="bspline"
       id="path-effect37"
       is_visible="true"
       lpeversion="1.3"
       weight="33.333333"
       steps="2"
       helper_size="0"
       apply_no_weight="true"
       apply_with_weight="true"
       only_selected="false"
       uniform="false" /><inkscape:path-effect
       effect="bspline"
       id="path-effect36"
       is_visible="true"
       lpeversion="1.3"
       weight="33.333333"
       steps="2"
       helper_size="0"
       apply_no_weight="true"
       apply_with_weight="true"
       only_selected="false"
       uniform="false" /><inkscape:path-effect
       effect="bspline"
       id="path-effect35"
       is_visible="true"
       lpeversion="1.3"
       weight="33.333333"
       steps="2"
       helper_size="0"
       apply_no_weight="true"
       apply_with_weight="true"
       only_selected="false"
       uniform="false" /><inkscape:path-effect
       effect="bspline"
       id="path-effect34"
       is_visible="true"
       lpeversion="1.3"
       weight="33.333333"
       steps="2"
       helper_size="0"
       apply_no_weight="true"
       apply_with_weight="true"
       only_selected="false"
       uniform="false" /><inkscape:path-effect
       effect="bspline"
       id="path-effect33"
       is_visible="true"
       lpeversion="1.3"
       weight="33.333333"
       steps="2"
       helper_size="0"
       apply_no_weight="true"
       apply_with_weight="true"
       only_selected="false"
       uniform="false" /><inkscape:path-effect
       effect="bspline"
       id="path-effect32"
       is_visible="true"
       lpeversion="1.3"
       weight="33.333333"
       steps="2"
       helper_size="0"
       apply_no_weight="true"
       apply_with_weight="true"
       only_selected="false"
       uniform="false" /><inkscape:path-effect
       effect="bspline"
       id="path-effect31"
       is_visible="true"
       lpeversion="1.3"
       weight="33.333333"
       steps="2"
       helper_size="0"
       apply_no_weight="true"
       apply_with_weight="true"
       only_selected="false"
       uniform="false" /><inkscape:path-effect
       effect="bspline"
       id="path-effect30"
       is_visible="true"
       lpeversion="1.3"
       weight="33.333333"
       steps="2"
       helper_size="0"
       apply_no_weight="true"
       apply_with_weight="true"
       only_selected="false"
       uniform="false" /><inkscape:path-effect
       effect="bspline"
       id="path-effect28"
       is_visible="true"
       lpeversion="1.3"
       weight="33.333333"
       steps="2"
       helper_size="0"
       apply_no_weight="true"
       apply_with_weight="true"
       only_selected="false"
       uniform="false" /><inkscape:path-effect
       effect="bspline"
       id="path-effect27"
       is_visible="true"
       lpeversion="1.3"
       weight="33.333333"
       steps="2"
       helper_size="0"
       apply_no_weight="true"
       apply_with_weight="true"
       only_selected="false"
       uniform="false" /><inkscape:path-effect
       effect="bspline"
       id="path-effect26"
       is_visible="true"
       lpeversion="1.3"
       weight="33.333333"
       steps="2"
       helper_size="0"
       apply_no_weight="true"
       apply_with_weight="true"
       only_selected="false"
       uniform="false" /><inkscape:path-effect
       effect="bspline"
       id="path-effect25"
       is_visible="true"
       lpeversion="1.3"
       weight="33.333333"
       steps="2"
       helper_size="0"
       apply_no_weight="true"
       apply_with_weight="true"
       only_selected="false"
       uniform="false" /><inkscape:path-effect
       effect="bspline"
       id="path-effect24"
       is_visible="true"
       lpeversion="1.3"
       weight="33.333333"
       steps="2"
       helper_size="0"
       apply_no_weight="true"
       apply_with_weight="true"
       only_selected="false"
       uniform="false" /><inkscape:path-effect
       effect="bspline"
       id="path-effect23"
       is_visible="true"
       lpeversion="1.3"
       weight="33.333333"
       steps="2"
       helper_size="0"
       apply_no_weight="true"
       apply_with_weight="true"
       only_selected="false"
       uniform="false" /><inkscape:path-effect
       effect="bspline"
       id="path-effect22"
       is_visible="true"
       lpeversion="1.3"
       weight="33.333333"
       steps="2"
       helper_size="0"
       apply_no_weight="true"
       apply_with_weight="true"
       only_selected="false"
       uniform="false" /><inkscape:path-effect
       effect="bspline"
       id="path-effect21"
       is_visible="true"
       lpeversion="1.3"
       weight="33.333333"
       steps="2"
       helper_size="0"
       apply_no_weight="true"
       apply_with_weight="true"
       only_selected="false"
       uniform="false" /><inkscape:path-effect
       effect="bspline"
       id="path-effect20"
       is_visible="true"
       lpeversion="1.3"
       weight="33.333333"
       steps="2"
       helper_size="0"
       apply_no_weight="true"
       apply_with_weight="true"
       only_selected="false"
       uniform="false" /><inkscape:path-effect
       effect="bspline"
       id="path-effect19"
       is_visible="true"
       lpeversion="1.3"
       weight="33.333333"
       steps="2"
       helper_size="0"
       apply_no_weight="true"
       apply_with_weight="true"
       only_selected="false"
       uniform="false" /><inkscape:path-effect
       effect="bspline"
       id="path-effect18"
       is_visible="true"
       lpeversion="1.3"
       weight="33.333333"
       steps="2"
       helper_size="0"
       apply_no_weight="true"
       apply_with_weight="true"
       only_selected="false"
       uniform="false" /><inkscape:path-effect
       effect="bspline"
       id="path-effect17"
       is_visible="true"
       lpeversion="1.3"
       weight="33.333333"
       steps="2"
       helper_size="0"
       apply_no_weight="true"
       apply_with_weight="true"
       only_selected="false"
       uniform="false" /><inkscape:path-effect
       effect="bspline"
       id="path-effect16"
       is_visible="true"
       lpeversion="1.3"
       weight="33.333333"
       steps="2"
       helper_size="0"
       apply_no_weight="true"
       apply_with_weight="true"
       only_selected="false"
       uniform="false" /><inkscape:path-effect
       effect="bspline"
       id="path-effect15"
       is_visible="true"
       lpeversion="1.3"
       weight="33.333333"
       steps="2"
       helper_size="0"
       apply_no_weight="true"
       apply_with_weight="true"
       only_selected="false"
       uniform="false" /><inkscape:path-effect
       effect="bspline"
       id="path-effect13"
       is_visible="true"
       lpeversion="1.3"
       weight="33.333333"
       steps="2"
       helper_size="0"
       apply_no_weight="true"
       apply_with_weight="true"
       only_selected="false"
       uniform="false" /><inkscape:path-effect
       effect="bspline"
       id="path-effect12"
       is_visible="true"
       lpeversion="1.3"
       weight="33.333333"
       steps="2"
       helper_size="0"
       apply_no_weight="true"
       apply_with_weight="true"
       only_selected="false"
       uniform="false" /><inkscape:path-effect
       effect="bspline"
       id="path-effect11"
       is_visible="true"
       lpeversion="1.3"
       weight="33.333333"
       steps="2"
       helper_size="0"
       apply_no_weight="true"
       apply_with_weight="true"
       only_selected="false"
       uniform="false" /><inkscape:path-effect
       effect="bspline"
       id="path-effect10"
       is_visible="true"
       lpeversion="1.3"
       weight="33.333333"
       steps="2"
       helper_size="0"
       apply_no_weight="true"
       apply_with_weight="true"
       only_selected="false"
       uniform="false" /><inkscape:path-effect
       effect="bspline"
       id="path-effect9"
       is_visible="true"
       lpeversion="1.3"
       weight="33.333333"
       steps="2"
       helper_size="0"
       apply_no_weight="true"
       apply_with_weight="true"
       only_selected="false"
       uniform="false" /><inkscape:path-effect
       effect="bspline"
       id="path-effect8"
       is_visible="true"
       lpeversion="1.3"
       weight="33.333333"
       steps="2"
       helper_size="0"
       apply_no_weight="true"
       apply_with_weight="true"
       only_selected="false"
       uniform="false" /><clipPath
       clipPathUnits="userSpaceOnUse"
       id="clipPath60"><path
         id="path61"
         style="fill:#ff0000;fill-opacity:1;fill-rule:nonzero;stroke:none"
         d="M 617.36523,523.26953 V 1483.8867 H 1261.9121 V 523.26953 Z m 218.22071,154.75195 c 0.5845,-0.0432 0.74643,0.65261 0.0176,1.12891 -0.24816,0.16216 -0.47662,0.35217 -0.71094,0.5332 -0.35905,0.29122 -0.68236,0.62195 -1.00977,0.94727 -0.22225,0.22901 -0.47038,0.4285 -0.70898,0.63867 0.0146,-0.0128 0.0298,-0.0248 0.0449,-0.0371 0.0636,-0.0519 0.13437,-0.0949 0.20117,-0.14258 0.10213,-0.007 0.21751,-0.0617 0.31641,-0.0566 0.033,0.002 0.0635,0.0102 0.0918,0.0293 0.13964,0.0942 0.19196,0.28751 0.22266,0.45312 0.0365,0.19699 -0.39366,0.46098 -0.52539,0.54688 -0.0379,0.023 -0.0771,0.0438 -0.11523,0.0664 -0.24487,0.27902 -0.46736,0.5785 -0.69532,0.87109 -0.30704,0.43074 -0.6187,0.85886 -0.89453,1.31055 -0.15748,0.25789 -0.35497,0.3463 -0.51172,0.32226 -0.0965,0.24836 -0.18921,0.49818 -0.28711,0.7461 -0.0557,0.13732 -0.11235,0.27472 -0.16796,0.41211 0.0435,0.0101 0.099,-0.0123 0.13671,0.0137 0.40412,0.27829 -0.46788,1.21517 -0.60156,1.40234 -0.0935,0.12053 -0.18935,0.23916 -0.2832,0.35938 -0.0419,0.0893 -0.0842,0.17858 -0.12695,0.26757 0.13722,-0.15391 0.26745,-0.31402 0.4082,-0.46484 0.36224,-0.36503 0.73022,-0.72474 1.12695,-1.05273 0.30887,-0.23725 0.62864,-0.47103 0.98242,-0.63672 0.68625,-0.32138 0.93745,0.35884 0.26953,0.71679 -0.27719,0.14857 -0.5369,0.3328 -0.78515,0.5254 -0.36933,0.30816 -0.7123,0.64515 -1.05078,0.98632 -0.48388,0.52083 -0.94481,1.06122 -1.4043,1.60352 -0.5534,0.66653 -1.06096,1.37109 -1.54101,2.0918 -0.31728,0.48124 -0.58548,0.9917 -0.85938,1.49804 -0.13976,0.25665 -0.305,0.52115 -0.67969,0.43555 -0.13243,-0.0303 -0.2278,-0.15551 -0.3125,-0.26172 -0.0604,-0.0759 -0.0737,-0.21286 -0.0996,-0.3418 -0.15208,0.13193 -0.33617,0.10762 -0.69531,-0.30078 -0.0434,-0.0493 0.17575,-0.66487 0.17773,-0.67187 0.14354,-0.41202 0.30315,-0.81818 0.47461,-1.21875 -0.01,-0.0765 -0.002,-0.1617 0.0195,-0.23828 0.0268,-0.0956 0.0861,-0.17818 0.13671,-0.26368 0.056,-0.0944 0.13161,-0.17516 0.19336,-0.26562 0.18491,-0.39432 0.37527,-0.78655 0.57422,-1.17383 0.0654,-0.11975 0.13145,-0.23911 0.19922,-0.35742 -0.0335,-0.0415 -0.0725,-0.0459 -0.10351,-0.10352 -0.0837,-0.15521 -0.0307,-0.35486 -0.006,-0.52929 0.0398,-0.27699 0.27694,-0.77995 0.3789,-1.01953 0.0436,-0.0888 0.10709,-0.16608 0.15235,-0.25391 -0.17157,-0.0515 -0.1383,-0.13402 -0.084,-0.37305 -0.0476,0.0469 -0.0951,0.0937 -0.14258,0.14063 -0.30567,0.24511 -0.342,0.35396 -0.65429,0.0879 -0.006,0.006 -0.0132,0.0101 -0.0195,0.0156 v 0.002 c -0.57027,0.49908 -1.10636,-0.0362 -0.54297,-0.54297 0.003,-0.003 0.007,-0.005 0.01,-0.008 -0.56471,0.0914 -0.94036,-0.34742 -0.27734,-0.87891 0.0685,-0.0549 0.13658,-0.10916 0.20508,-0.16406 0.49043,-0.37417 1.00746,-0.71119 1.53711,-1.02735 0.67726,-0.40988 1.34644,-0.83246 2.02734,-1.23633 0.45362,-0.28945 0.91897,-0.56391 1.35156,-0.88476 0.3057,-0.22002 0.60869,-0.4403 0.90039,-0.67774 0.0977,-0.30696 0.28833,-0.44742 0.45703,-0.44726 0.0188,2e-5 0.0366,0.004 0.0547,0.008 0.26013,-0.22378 0.52471,-0.44285 0.76367,-0.68945 0.35936,-0.35691 0.71531,-0.71799 1.11133,-1.03516 0.28947,-0.22334 0.57081,-0.4614 0.88867,-0.64453 0.17411,-0.10031 0.32996,-0.15019 0.46485,-0.16016 z m -2.20313,3.19532 c -0.014,0.0183 -0.0367,0.0342 -0.0527,0.0527 0.0137,-0.0103 0.0333,-0.0228 0.043,-0.0312 0.006,-0.005 0.0148,-0.0275 0.01,-0.0215 z m -0.26172,0.10156 c -0.0973,0.0847 -0.18714,0.17787 -0.28711,0.25976 0.0286,-0.0163 0.0575,-0.0323 0.0859,-0.0488 0.0646,-0.0724 0.13063,-0.14426 0.20117,-0.21094 z m -5.96484,4.94141 c -0.007,0.0143 -0.0137,0.0278 -0.0195,0.043 -0.005,0.0138 0.0373,-0.024 0.0273,-0.0352 -0.002,-0.003 -0.005,-0.005 -0.008,-0.008 z m 0.2168,1.66406 c 0.007,0.005 0.0249,0.009 0.041,0.0137 7.6e-4,-0.001 9.6e-4,-0.003 0.002,-0.004 -0.0154,-0.004 -0.0333,-0.009 -0.043,-0.01 z m -0.65821,4.16797 c -0.005,0.0579 -0.007,0.11721 -0.008,0.17578 0.0277,-0.0509 0.056,-0.10158 0.084,-0.15235 -0.0254,-0.008 -0.0507,-0.0151 -0.0762,-0.0234 z m -0.35156,0.80078 c -0.0118,0.006 -0.0231,0.0139 -0.0352,0.0195 0.011,-0.005 0.0262,-0.006 0.0332,-0.0156 8.4e-4,-10e-4 9e-4,-0.003 0.002,-0.004 z" /></clipPath><rect
       x="-233.28303"
       y="-207.52858"
       width="212.38087"
       height="138.85006"
       id="rect1" /><inkscape:path-effect
       effect="spiro"
       id="path-effect2"
       is_visible="true"
       lpeversion="1" /></defs><sodipodi:namedview
     id="namedview1"
     pagecolor="#505050"
     bordercolor="#eeeeee"
     borderopacity="1"
     inkscape:showpageshadow="0"
     inkscape:pageopacity="0"
     inkscape:pagecheckerboard="0"
     inkscape:deskcolor="#505050"
     inkscape:zoom="0.28867165"
     inkscape:cx="999.40538"
     inkscape:cy="706.68526"
     inkscape:window-width="1600"
     inkscape:window-height="877"
     inkscape:window-x="-8"
     inkscape:window-y="-8"
     inkscape:window-maximized="1"
     inkscape:current-layer="svg1"
     showgrid="false" /><rect
     style="fill:#ecdbfd;fill-opacity:1;stroke:#9364db;stroke-width:2;stroke-linejoin:round;stroke-opacity:1"
     id="rect2"
     width="1770.1772"
     height="1745.9283"
     x="-13.856574"
     y="0" /><g
     id="g1"
     transform="matrix(8.8828627,0,0,8.2091985,70.375803,82.863572)"
     style="fill:none;fill-opacity:1;stroke:#000000;stroke-opacity:1"><g
       id="layer1-1"
       inkscape:label="Cat"
       style="display:inline;fill:none;fill-opacity:1;stroke:#000000;stroke-opacity:1"
       transform="matrix(1.9804444,0,0,1.7609946,-127.24012,15.918923)"><path
         style="fill:none;fill-opacity:1;stroke:#9364db;stroke-width:2.93906;stroke-linecap:round;stroke-linejoin:bevel;stroke-dasharray:none;stroke-opacity:1"
         d="m 90.033606,37.051886 c 6.867889,-2.100756 14.117214,-2.947587 21.284384,-2.486339 4.92554,0.316986 9.81123,1.248251 14.50801,2.765379"
         id="path2"
         transform="matrix(0.61749757,0,0,0.85646228,43.018443,-27.169131)"
         sodipodi:nodetypes="csc"
         inkscape:original-d="m 90.033606,37.051886 c 7.185118,-1.026446 13.945304,-1.536879 21.284384,-2.486339 7.33909,-0.949462 9.55541,1.738933 14.50801,2.765379"
         inkscape:path-effect="#path-effect2" /><path
         style="fill:none;fill-opacity:1;stroke:#9364db;stroke-width:2.13738;stroke-linecap:round;stroke-linejoin:bevel;stroke-dasharray:none;stroke-opacity:1;paint-order:normal"
         d="M 84.209585,13.885819 84.076509,8.1644263 c 0.05315,-4.986994 -0.310874,-9.8856897 0.323667,-14.7659651 0.06149,-0.4729334 0.344325,-0.9186647 0.667067,-1.1364331 0.438976,-0.296196 1.000919,-0.230443 1.477077,-0.063131 1.026859,0.3608133 2.715914,2.2097295 2.715914,2.2097295 l 9.148342,10.1647607"
         id="path3"
         sodipodi:nodetypes="ccsaacc" /><path
         style="fill:none;fill-opacity:1;stroke:#9364db;stroke-width:1.85239;stroke-linecap:round;stroke-linejoin:bevel;stroke-dasharray:none;stroke-opacity:1;paint-order:normal"
         d="m 78.491868,25.9762 c 10.48248,2.083458 10.48248,2.083458 10.48248,2.083458 v 0"
         id="path5" /><path
         style="fill:none;fill-opacity:1;stroke:#9364db;stroke-width:1.85239;stroke-linecap:round;stroke-linejoin:bevel;stroke-dasharray:none;stroke-opacity:1;paint-order:normal"
         d="m 89.099799,33.449763 c -10.53797,1.514243 -10.53797,1.514243 -10.53797,1.514243 v 0"
         id="path5-7" /><path
         style="fill:none;fill-opacity:1;stroke:#9364db;stroke-width:1.85239;stroke-linecap:round;stroke-linejoin:bevel;stroke-dasharray:none;stroke-opacity:1;paint-order:normal"
         d="m 140.62688,25.849333 c -10.48248,2.083458 -10.48248,2.083458 -10.48248,2.083458 v 0"
         id="path5-2" /><path
         style="fill:none;fill-opacity:1;stroke:#9364db;stroke-width:1.85239;stroke-linecap:round;stroke-linejoin:bevel;stroke-dasharray:none;stroke-opacity:1;paint-order:normal"
         d="m 130.01895,33.322896 c 10.53796,1.514243 10.53796,1.514243 10.53796,1.514243 v 0"
         id="path5-7-2" /><path
         style="fill:none;fill-opacity:1;stroke:#9364db;stroke-width:2.13738;stroke-linecap:round;stroke-linejoin:bevel;stroke-dasharray:none;stroke-opacity:1;paint-order:normal"
         d="m 134.80848,14.13836 0.13308,-5.7213927 c -0.0532,-4.986994 0.31087,-9.8856917 -0.32368,-14.765965 -0.0614,-0.4729336 -0.34432,-0.9186648 -0.66706,-1.1364333 -0.43898,-0.2961958 -1.00092,-0.2304429 -1.47708,-0.063131 -1.02686,0.3608142 -2.71591,2.2097306 -2.71591,2.2097306 l -9.14835,10.1647587"
         id="path4"
         sodipodi:nodetypes="ccsaacc" /><ellipse
         style="fill:#9364db;fill-opacity:1;stroke:none;stroke-width:0.569966;stroke-linecap:round;stroke-linejoin:bevel;stroke-dasharray:none;stroke-opacity:1;paint-order:normal"
         id="path6-8"
         cx="97.979752"
         cy="23.76647"
         rx="2.0964959"
         ry="3.5987036" /><ellipse
         style="fill:#9364db;fill-opacity:1;stroke:none;stroke-width:0.569966;stroke-linecap:round;stroke-linejoin:bevel;stroke-dasharray:none;stroke-opacity:1;paint-order:normal"
         id="path6-5"
         cx="120.98522"
         cy="23.759165"
         rx="2.0964959"
         ry="3.5987036" /><path
         style="display:inline;fill:none;fill-opacity:1;stroke:#9364db;stroke-width:0.927614;stroke-linecap:round;stroke-linejoin:round;stroke-dasharray:none;stroke-opacity:1;paint-order:normal"
         d="m 103.59207,34.783671 c 2.05521,5.915238 5.87925,1.374042 5.87925,1.374042 l 0.0865,-3.937999"
         id="path9"
         sodipodi:nodetypes="cc" /><path
         style="display:inline;fill:none;fill-opacity:1;stroke:#9364db;stroke-width:0.927614;stroke-linecap:round;stroke-linejoin:round;stroke-dasharray:none;stroke-opacity:1;paint-order:normal"
         d="m 115.53529,34.800438 c -2.05521,5.915237 -5.87924,1.374041 -5.87924,1.374041 l -0.0865,-3.938001"
         id="path9-9"
         sodipodi:nodetypes="cc" /><path
         d="m 107.65462,26.919774 c -0.11041,-3.83e-4 -0.21315,0.0202 -0.30384,0.06739 -0.56673,0.294887 -0.99525,1.325956 -0.88853,2.114367 0.23646,1.74668 3.08585,3.566322 3.08585,3.566322 l 0.0268,-4.722888 c 0,0 -1.14742,-1.022497 -1.92035,-1.025185 z m 3.77959,0.01313 c -0.74425,0.0105 -1.84357,1.020948 -1.84357,1.020948 l -0.031,4.722889 c 0,0 2.81099,-1.81947 3.04425,-3.566324 0.1053,-0.788486 -0.31102,-1.823155 -0.87668,-2.11479 -0.0876,-0.04515 -0.18665,-0.06422 -0.29297,-0.06273 z"
         style="display:inline;fill:#fb93b2;fill-opacity:1;stroke:#fb93b2;stroke-width:0.357654;stroke-linecap:round;stroke-linejoin:round;stroke-dasharray:none;stroke-opacity:1"
         id="path8" /></g><text
       xml:space="preserve"
       style="font-style:normal;font-variant:normal;font-weight:normal;font-stretch:normal;font-size:23.1785px;line-height:1;font-family:Capriola;-inkscape-font-specification:'Capriola, Normal';font-variant-ligatures:normal;font-variant-caps:normal;font-variant-numeric:normal;font-variant-east-asian:normal;text-align:start;letter-spacing:-0.538966px;writing-mode:lr-tb;direction:ltr;text-anchor:start;display:inline;fill:#9364db;fill-opacity:1;stroke:none;stroke-width:0;stroke-linecap:round;stroke-linejoin:round;stroke-dasharray:none;stroke-opacity:1"
       x="43.822475"
       y="122.47777"
       id="text7"
       transform="scale(1.0372104,0.96412452)"><tspan
         sodipodi:role="line"
         id="tspan7"
         style="font-style:normal;font-variant:normal;font-weight:normal;font-stretch:normal;font-size:23.1785px;font-family:Capriola;-inkscape-font-specification:'Capriola, Normal';font-variant-ligatures:normal;font-variant-caps:normal;font-variant-numeric:normal;font-variant-east-asian:normal;letter-spacing:-0.538966px;fill:#9364db;fill-opacity:1;stroke:none;stroke-width:0;stroke-dasharray:none;stroke-opacity:1"
         x="43.822475"
         y="122.47777">Projeto</tspan></text><text
       xml:space="preserve"
       style="font-style:normal;font-variant:normal;font-weight:normal;font-stretch:normal;font-size:33.8915px;line-height:1;font-family:Capriola;-inkscape-font-specification:Capriola;font-variant-ligatures:normal;font-variant-caps:normal;font-variant-numeric:normal;font-variant-east-asian:normal;text-align:start;letter-spacing:-0.834074px;writing-mode:lr-tb;direction:ltr;text-anchor:start;fill:#9364db;fill-opacity:1;stroke:none;stroke-width:1.7873;stroke-linecap:round;stroke-linejoin:round;stroke-dasharray:none;stroke-opacity:1"
       x="34.770828"
       y="156.22574"
       id="text5"
       transform="scale(1.0330996,0.96796086)"><tspan
         sodipodi:role="line"
         x="34.770828"
         y="156.22574"
         style="letter-spacing:-0.834074px;writing-mode:lr-tb;fill:#9364db;fill-opacity:1;stroke:none;stroke-width:1.7873;stroke-dasharray:none;stroke-opacity:1"
         id="tspan8">Puuur</tspan><tspan
         sodipodi:role="line"
         x="34.770828"
         y="190.11723"
         style="letter-spacing:-0.834074px;writing-mode:lr-tb;fill:#9364db;fill-opacity:1;stroke:none;stroke-width:1.7873;stroke-dasharray:none;stroke-opacity:1"
         id="tspan9" /></text><text
       xml:space="preserve"
       style="font-style:normal;font-variant:normal;font-weight:normal;font-stretch:normal;font-size:32.5541px;line-height:1;font-family:Capriola;-inkscape-font-specification:'Capriola, Normal';font-variant-ligatures:normal;font-variant-caps:normal;font-variant-numeric:normal;font-variant-east-asian:normal;text-align:start;letter-spacing:-0.813853px;writing-mode:lr-tb;direction:ltr;text-anchor:start;fill:#9364db;fill-opacity:1;stroke:none;stroke-width:1.74397;stroke-linecap:round;stroke-linejoin:round;stroke-dasharray:none;stroke-opacity:1"
       x="42.215553"
       y="181.103"
       id="text10"
       transform="scale(1.0004943,0.99950595)"><tspan
         sodipodi:role="line"
         id="tspan10"
         x="42.215553"
         y="181.103"
         style="fill:#9364db;fill-opacity:1;stroke:none;stroke-width:1.74397;stroke-opacity:1">Amor</tspan></text></g></svg>
